<svg width="458" height="458" viewBox="0 0 458 458" fill="none" xmlns="http://www.w3.org/2000/svg">
<path fill-rule="evenodd" clip-rule="evenodd" d="M0 1.00001L1.05787 2.05788L1.76498 1.35078L0.707107 0.292908L0 1.00001ZM3.17361 4.17363L5.28935 6.28937L5.99646 5.58226L3.88072 3.46652L3.17361 4.17363ZM7.40509 8.40511L9.52083 10.5208L10.2279 9.81374L8.1122 7.698L7.40509 8.40511ZM11.6366 12.6366L13.7523 14.7523L14.4594 14.0452L12.3437 11.9295L11.6366 12.6366ZM15.8681 16.8681L17.9838 18.9838L18.6909 18.2767L16.5752 16.161L15.8681 16.8681ZM20.0995 21.0996L22.2153 23.2153L22.9224 22.5082L20.8066 20.3924L20.0995 21.0996ZM24.331 25.331L26.4468 27.4468L27.1539 26.7397L25.0381 24.6239L24.331 25.331ZM28.5625 29.5625L30.6782 31.6783L31.3854 30.9712L29.2696 28.8554L28.5625 29.5625ZM32.794 33.794L34.9097 35.9097L35.6168 35.2026L33.5011 33.0869L32.794 33.794ZM37.0255 38.0255L39.1412 40.1412L39.8483 39.4341L37.7326 37.3184L37.0255 38.0255ZM41.257 42.257L43.3727 44.3727L44.0798 43.6656L41.9641 41.5499L41.257 42.257ZM45.4884 46.4885L47.6042 48.6042L48.3113 47.8971L46.1955 45.7813L45.4884 46.4885ZM49.7199 50.7199L51.8357 52.8357L52.5428 52.1286L50.427 50.0128L49.7199 50.7199ZM53.9514 54.9514L56.0672 57.0672L56.7743 56.3601L54.6585 54.2443L53.9514 54.9514ZM58.1829 59.1829L60.2986 61.2986L61.0057 60.5915L58.89 58.4758L58.1829 59.1829ZM62.4144 63.4144L64.5301 65.5301L65.2372 64.823L63.1215 62.7073L62.4144 63.4144ZM66.6459 67.6459L68.7616 69.7616L69.4687 69.0545L67.353 66.9388L66.6459 67.6459ZM70.8773 71.8774L72.9931 73.9931L73.7002 73.286L71.5844 71.1702L70.8773 71.8774ZM75.1088 76.1088L77.2246 78.2246L77.9317 77.5175L75.8159 75.4017L75.1088 76.1088ZM79.3403 80.3403L81.4561 82.4561L82.1632 81.749L80.0474 79.6332L79.3403 80.3403ZM83.5718 84.5718L85.6875 86.6876L86.3946 85.9804L84.2789 83.8647L83.5718 84.5718ZM87.8033 88.8033L89.919 90.919L90.6261 90.2119L88.5104 88.0962L87.8033 88.8033ZM92.0348 93.0348L94.1505 95.1505L94.8576 94.4434L92.7419 92.3277L92.0348 93.0348ZM96.2663 97.2663L98.382 99.382L99.0891 98.6749L96.9734 96.5592L96.2663 97.2663ZM100.498 101.498L102.613 103.613L103.321 102.906L101.205 100.791L100.498 101.498ZM104.729 105.729L106.845 107.845L107.552 107.138L105.436 105.022L104.729 105.729ZM108.961 109.961L111.076 112.076L111.784 111.369L109.668 109.254L108.961 109.961ZM113.192 114.192L115.308 116.308L116.015 115.601L113.899 113.485L113.192 114.192ZM117.424 118.424L119.539 120.539L120.247 119.832L118.131 117.717L117.424 118.424ZM121.655 122.655L123.771 124.771L124.478 124.064L122.362 121.948L121.655 122.655ZM125.887 126.887L128.002 129.002L128.709 128.295L126.594 126.18L125.887 126.887ZM130.118 131.118L132.234 133.234L132.941 132.527L130.825 130.411L130.118 131.118ZM134.35 135.35L136.465 137.465L137.172 136.758L135.057 134.643L134.35 135.35ZM138.581 139.581L140.697 141.697L141.404 140.99L139.288 138.874L138.581 139.581ZM142.813 143.813L144.928 145.928L145.635 145.221L143.52 143.105L142.813 143.813ZM147.044 148.044L149.16 150.16L149.867 149.453L147.751 147.337L147.044 148.044ZM151.276 152.276L153.391 154.391L154.098 153.684L151.983 151.568L151.276 152.276ZM155.507 156.507L157.623 158.623L158.33 157.916L156.214 155.8L155.507 156.507ZM159.739 160.739L161.854 162.854L162.561 162.147L160.446 160.031L159.739 160.739ZM163.97 164.97L166.086 167.086L166.793 166.379L164.677 164.263L163.97 164.97ZM168.201 169.201L170.317 171.317L171.024 170.61L168.909 168.494L168.201 169.201ZM172.433 173.433L174.549 175.549L175.256 174.842L173.14 172.726L172.433 173.433ZM176.664 177.664L178.78 179.78L179.487 179.073L177.372 176.957L176.664 177.664ZM180.896 181.896L183.012 184.012L183.719 183.305L181.603 181.189L180.896 181.896ZM185.127 186.127L187.243 188.243L187.95 187.536L185.835 185.42L185.127 186.127ZM189.359 190.359L191.475 192.475L192.182 191.768L190.066 189.652L189.359 190.359ZM193.59 194.59L195.706 196.706L196.413 195.999L194.297 193.883L193.59 194.59ZM197.822 198.822L199.938 200.938L200.645 200.23L198.529 198.115L197.822 198.822ZM202.053 203.053L204.169 205.169L204.876 204.462L202.76 202.346L202.053 203.053ZM206.285 207.285L208.4 209.4L209.108 208.693L206.992 206.578L206.285 207.285ZM248.599 249.599L250.715 251.715L251.422 251.008L249.306 248.892L248.599 249.599ZM252.831 253.831L254.947 255.947L255.654 255.239L253.538 253.124L252.831 253.831ZM257.062 258.062L259.178 260.178L259.885 259.471L257.769 257.355L257.062 258.062ZM261.294 262.294L263.409 264.409L264.117 263.702L262.001 261.587L261.294 262.294ZM265.525 266.525L267.641 268.641L268.348 267.934L266.232 265.818L265.525 266.525ZM269.757 270.757L271.872 272.872L272.579 272.165L270.464 270.05L269.757 270.757ZM273.988 274.988L276.104 277.104L276.811 276.397L274.695 274.281L273.988 274.988ZM278.22 279.22L280.335 281.335L281.042 280.628L278.927 278.512L278.22 279.22ZM282.451 283.451L284.567 285.567L285.274 284.86L283.158 282.744L282.451 283.451ZM286.682 287.683L288.798 289.798L289.505 289.091L287.39 286.975L286.682 287.683ZM290.914 291.914L293.03 294.03L293.737 293.323L291.621 291.207L290.914 291.914ZM295.145 296.145L297.261 298.261L297.968 297.554L295.853 295.438L295.145 296.145ZM299.377 300.377L301.493 302.493L302.2 301.786L300.084 299.67L299.377 300.377ZM303.608 304.608L305.724 306.724L306.431 306.017L304.315 303.901L303.608 304.608ZM307.84 308.84L309.956 310.956L310.663 310.248L308.547 308.133L307.84 308.84ZM312.071 313.071L314.187 315.187L314.894 314.48L312.778 312.364L312.071 313.071ZM316.303 317.303L318.418 319.419L319.126 318.711L317.01 316.596L316.303 317.303ZM320.534 321.534L322.65 323.65L323.357 322.943L321.241 320.827L320.534 321.534ZM324.766 325.766L326.881 327.881L327.589 327.174L325.473 325.059L324.766 325.766ZM328.997 329.997L331.113 332.113L331.82 331.406L329.704 329.29L328.997 329.997ZM333.229 334.229L335.344 336.344L336.051 335.637L333.936 333.521L333.229 334.229ZM337.46 338.46L339.576 340.576L340.283 339.869L338.167 337.753L337.46 338.46ZM341.692 342.692L343.807 344.807L344.514 344.1L342.399 341.984L341.692 342.692ZM345.923 346.923L348.039 349.039L348.746 348.332L346.63 346.216L345.923 346.923ZM350.154 351.154L352.27 353.27L352.977 352.563L350.862 350.447L350.154 351.154ZM354.386 355.386L356.502 357.502L357.209 356.795L355.093 354.679L354.386 355.386ZM358.617 359.617L360.733 361.733L361.44 361.026L359.324 358.91L358.617 359.617ZM362.849 363.849L364.965 365.965L365.672 365.257L363.556 363.142L362.849 363.849ZM367.08 368.08L369.196 370.196L369.903 369.489L367.787 367.373L367.08 368.08ZM371.312 372.312L373.428 374.428L374.135 373.721L372.019 371.605L371.312 372.312ZM375.543 376.543L377.659 378.659L378.366 377.952L376.25 375.836L375.543 376.543ZM379.775 380.775L381.891 382.891L382.598 382.184L380.482 380.068L379.775 380.775ZM384.006 385.006L386.122 387.122L386.829 386.415L384.713 384.299L384.006 385.006ZM388.238 389.238L390.354 391.354L391.061 390.647L388.945 388.531L388.238 389.238ZM392.469 393.469L394.585 395.585L395.292 394.878L393.176 392.762L392.469 393.469ZM396.701 397.701L398.817 399.817L399.524 399.11L397.408 396.994L396.701 397.701ZM400.932 401.932L403.048 404.048L403.755 403.341L401.639 401.225L400.932 401.932ZM405.164 406.164L407.28 408.28L407.987 407.573L405.871 405.457L405.164 406.164ZM409.395 410.395L411.511 412.511L412.218 411.804L410.103 409.688L409.395 410.395ZM413.627 414.627L415.743 416.743L416.45 416.036L414.334 413.92L413.627 414.627ZM417.858 418.858L419.974 420.974L420.681 420.267L418.566 418.151L417.858 418.858ZM422.09 423.09L424.206 425.206L424.913 424.499L422.797 422.383L422.09 423.09ZM426.321 427.321L428.437 429.437L429.144 428.73L427.029 426.614L426.321 427.321ZM430.553 431.553L432.669 433.669L433.376 432.962L431.26 430.846L430.553 431.553ZM434.784 435.784L436.9 437.9L437.607 437.193L435.492 435.077L434.784 435.784ZM439.016 440.016L441.132 442.132L441.839 441.425L439.723 439.309L439.016 440.016ZM443.247 444.247L445.363 446.363L446.07 445.656L443.955 443.54L443.247 444.247ZM447.479 448.479L449.595 450.595L450.302 449.888L448.186 447.772L447.479 448.479ZM451.71 452.71L453.826 454.826L454.533 454.119L452.418 452.003L451.71 452.71ZM455.942 456.942L457 458L457.707 457.293L456.649 456.235L455.942 456.942Z" fill="#0F8EFF"/>
<path fill-rule="evenodd" clip-rule="evenodd" d="M457 0.292877L455.942 1.35075L456.649 2.05785L457.707 0.999984L457 0.292877ZM453.826 3.46649L451.711 5.58223L452.418 6.28934L454.534 4.1736L453.826 3.46649ZM449.595 7.69797L447.479 9.81371L448.186 10.5208L450.302 8.40508L449.595 7.69797ZM445.363 11.9295L443.248 14.0452L443.955 14.7523L446.071 12.6366L445.363 11.9295ZM441.132 16.1609L439.016 18.2767L439.723 18.9838L441.839 16.868L441.132 16.1609ZM436.901 20.3924L434.785 22.5082L435.492 23.2153L437.608 21.0995L436.901 20.3924ZM432.669 24.6239L430.553 26.7396L431.26 27.4467L433.376 25.331L432.669 24.6239ZM428.438 28.8554L426.322 30.9711L427.029 31.6782L429.145 29.5625L428.438 28.8554ZM424.206 33.0869L422.09 35.2026L422.797 35.9097L424.913 33.794L424.206 33.0869ZM419.975 37.3183L417.859 39.4341L418.566 40.1412L420.682 38.0255L419.975 37.3183ZM415.743 41.5498L413.627 43.6656L414.334 44.3727L416.45 42.2569L415.743 41.5498ZM411.512 45.7813L409.396 47.8971L410.103 48.6042L412.219 46.4884L411.512 45.7813ZM407.28 50.0128L405.164 52.1285L405.871 52.8356L407.987 50.7199L407.28 50.0128ZM403.049 54.2443L400.933 56.36L401.64 57.0671L403.756 54.9514L403.049 54.2443ZM398.817 58.4758L396.701 60.5915L397.409 61.2986L399.524 59.1829L398.817 58.4758ZM394.586 62.7072L392.47 64.823L393.177 65.5301L395.293 63.4144L394.586 62.7072ZM390.354 66.9387L388.238 69.0545L388.946 69.7616L391.061 67.6458L390.354 66.9387ZM386.123 71.1702L384.007 73.286L384.714 73.9931L386.83 71.8773L386.123 71.1702ZM381.891 75.4017L379.775 77.5174L380.483 78.2246L382.598 76.1088L381.891 75.4017ZM377.66 79.6332L375.544 81.7489L376.251 82.456L378.367 80.3403L377.66 79.6332ZM373.428 83.8647L371.313 85.9804L372.02 86.6875L374.135 84.5718L373.428 83.8647ZM369.197 88.0962L367.081 90.2119L367.788 90.919L369.904 88.8033L369.197 88.0962ZM364.965 92.3276L362.85 94.4434L363.557 95.1505L365.672 93.0347L364.965 92.3276ZM360.734 96.5591L358.618 98.6749L359.325 99.382L361.441 97.2662L360.734 96.5591ZM356.502 100.791L354.387 102.906L355.094 103.613L357.209 101.498L356.502 100.791ZM352.271 105.022L350.155 107.138L350.862 107.845L352.978 105.729L352.271 105.022ZM348.039 109.254L345.924 111.369L346.631 112.076L348.746 109.961L348.039 109.254ZM343.808 113.485L341.692 115.601L342.399 116.308L344.515 114.192L343.808 113.485ZM339.576 117.717L337.461 119.832L338.168 120.539L340.283 118.424L339.576 117.717ZM335.345 121.948L333.229 124.064L333.936 124.771L336.052 122.655L335.345 121.948ZM331.113 126.18L328.998 128.295L329.705 129.002L331.821 126.887L331.113 126.18ZM326.882 130.411L324.766 132.527L325.473 133.234L327.589 131.118L326.882 130.411ZM322.65 134.642L320.535 136.758L321.242 137.465L323.358 135.35L322.65 134.642ZM318.419 138.874L316.303 140.99L317.01 141.697L319.126 139.581L318.419 138.874ZM314.187 143.105L312.072 145.221L312.779 145.928L314.895 143.813L314.187 143.105ZM309.956 147.337L307.84 149.453L308.547 150.16L310.663 148.044L309.956 147.337ZM305.724 151.568L303.609 153.684L304.316 154.391L306.432 152.276L305.724 151.568ZM301.493 155.8L299.377 157.916L300.084 158.623L302.2 156.507L301.493 155.8ZM297.262 160.031L295.146 162.147L295.853 162.854L297.969 160.738L297.262 160.031ZM293.03 164.263L290.914 166.379L291.621 167.086L293.737 164.97L293.03 164.263ZM288.799 168.494L286.683 170.61L287.39 171.317L289.506 169.201L288.799 168.494ZM284.567 172.726L282.451 174.842L283.158 175.549L285.274 173.433L284.567 172.726ZM280.336 176.957L278.22 179.073L278.927 179.78L281.043 177.664L280.336 176.957ZM276.104 181.189L273.988 183.305L274.695 184.012L276.811 181.896L276.104 181.189ZM271.873 185.42L269.757 187.536L270.464 188.243L272.58 186.127L271.873 185.42ZM267.641 189.652L265.525 191.767L266.233 192.475L268.348 190.359L267.641 189.652ZM263.41 193.883L261.294 195.999L262.001 196.706L264.117 194.59L263.41 193.883ZM259.178 198.115L257.063 200.23L257.77 200.938L259.885 198.822L259.178 198.115ZM254.947 202.346L252.831 204.462L253.538 205.169L255.654 203.053L254.947 202.346ZM250.715 206.578L248.6 208.693L249.307 209.4L251.422 207.285L250.715 206.578ZM208.401 248.892L206.285 251.008L206.992 251.715L209.108 249.599L208.401 248.892ZM204.169 253.124L202.054 255.239L202.761 255.947L204.876 253.831L204.169 253.124ZM199.938 257.355L197.822 259.471L198.529 260.178L200.645 258.062L199.938 257.355ZM195.706 261.587L193.591 263.702L194.298 264.409L196.413 262.294L195.706 261.587ZM191.475 265.818L189.359 267.934L190.066 268.641L192.182 266.525L191.475 265.818ZM187.243 270.049L185.128 272.165L185.835 272.872L187.951 270.757L187.243 270.049ZM183.012 274.281L180.896 276.397L181.603 277.104L183.719 274.988L183.012 274.281ZM178.78 278.512L176.665 280.628L177.372 281.335L179.488 279.22L178.78 278.512ZM174.549 282.744L172.433 284.86L173.14 285.567L175.256 283.451L174.549 282.744ZM170.318 286.975L168.202 289.091L168.909 289.798L171.025 287.682L170.318 286.975ZM166.086 291.207L163.97 293.323L164.677 294.03L166.793 291.914L166.086 291.207ZM161.855 295.438L159.739 297.554L160.446 298.261L162.562 296.145L161.855 295.438ZM157.623 299.67L155.507 301.785L156.215 302.493L158.33 300.377L157.623 299.67ZM153.392 303.901L151.276 306.017L151.983 306.724L154.099 304.608L153.392 303.901ZM149.16 308.133L147.044 310.248L147.752 310.956L149.867 308.84L149.16 308.133ZM144.929 312.364L142.813 314.48L143.52 315.187L145.636 313.071L144.929 312.364ZM140.697 316.596L138.582 318.711L139.289 319.418L141.404 317.303L140.697 316.596ZM136.466 320.827L134.35 322.943L135.057 323.65L137.173 321.534L136.466 320.827ZM132.234 325.059L130.119 327.174L130.826 327.881L132.941 325.766L132.234 325.059ZM128.003 329.29L125.887 331.406L126.594 332.113L128.71 329.997L128.003 329.29ZM123.771 333.521L121.656 335.637L122.363 336.344L124.479 334.229L123.771 333.521ZM119.54 337.753L117.424 339.869L118.131 340.576L120.247 338.46L119.54 337.753ZM115.309 341.984L113.193 344.1L113.9 344.807L116.016 342.691L115.309 341.984ZM111.077 346.216L108.961 348.332L109.668 349.039L111.784 346.923L111.077 346.216ZM106.846 350.447L104.73 352.563L105.437 353.27L107.553 351.154L106.846 350.447ZM102.614 354.679L100.498 356.795L101.205 357.502L103.321 355.386L102.614 354.679ZM98.3827 358.91L96.2669 361.026L96.9741 361.733L99.0898 359.617L98.3827 358.91ZM94.1512 363.142L92.0354 365.257L92.7426 365.965L94.8583 363.849L94.1512 363.142ZM89.9197 367.373L87.8039 369.489L88.511 370.196L90.6268 368.08L89.9197 367.373ZM85.6882 371.605L83.5724 373.72L84.2795 374.428L86.3953 372.312L85.6882 371.605ZM81.4567 375.836L79.3409 377.952L80.048 378.659L82.1638 376.543L81.4567 375.836ZM77.2252 380.068L75.1094 382.183L75.8165 382.891L77.9323 380.775L77.2252 380.068ZM72.9937 384.299L70.8779 386.415L71.585 387.122L73.7008 385.006L72.9937 384.299ZM68.7622 388.531L66.6464 390.646L67.3535 391.354L69.4693 389.238L68.7622 388.531ZM64.5307 392.762L62.4149 394.878L63.122 395.585L65.2378 393.469L64.5307 392.762ZM60.2992 396.994L58.1834 399.109L58.8905 399.817L61.0063 397.701L60.2992 396.994ZM56.0677 401.225L53.9519 403.341L54.659 404.048L56.7747 401.932L56.0677 401.225ZM51.8361 405.457L49.7204 407.572L50.4275 408.28L52.5432 406.164L51.8361 405.457ZM47.6046 409.688L45.4889 411.804L46.196 412.511L48.3117 410.395L47.6046 409.688ZM43.3731 413.92L41.2574 416.036L41.9645 416.743L44.0802 414.627L43.3731 413.92ZM39.1416 418.151L37.0259 420.267L37.733 420.974L39.8487 418.858L39.1416 418.151ZM34.9101 422.383L32.7944 424.499L33.5015 425.206L35.6172 423.09L34.9101 422.383ZM30.6786 426.614L28.5629 428.73L29.27 429.437L31.3857 427.321L30.6786 426.614ZM26.4471 430.846L24.3314 432.962L25.0384 433.669L27.1542 431.553L26.4471 430.846ZM22.2156 435.077L20.0999 437.193L20.8069 437.9L22.9227 435.784L22.2156 435.077ZM17.9841 439.309L15.8683 441.425L16.5754 442.132L18.6912 440.016L17.9841 439.309ZM13.7526 443.54L11.6368 445.656L12.3439 446.363L14.4597 444.247L13.7526 443.54ZM9.52108 447.772L7.40533 449.888L8.11242 450.595L10.2282 448.479L9.52108 447.772ZM5.28958 452.003L3.17382 454.119L3.88092 454.826L5.99667 452.71L5.28958 452.003ZM1.05807 456.235L2.65751e-05 457.293L0.707149 458L1.76516 456.942L1.05807 456.235Z" fill="#0F8EFF"/>
<rect x="221.5" y="222.5" width="13" height="13" stroke="#0F8EFF"/>
<path d="M220.5 221.5H222.5V223.5H220.5V221.5Z" fill="white" stroke="#0F8EFF" stroke-miterlimit="10"/>
<path d="M233.5 221.5H235.5V223.5H233.5V221.5Z" fill="white" stroke="#0F8EFF" stroke-miterlimit="10"/>
<path d="M233.5 234.5H235.5V236.5H233.5V234.5Z" fill="white" stroke="#0F8EFF" stroke-miterlimit="10"/>
<path d="M220.5 234.5H222.5V236.5H220.5V234.5Z" fill="white" stroke="#0F8EFF" stroke-miterlimit="10"/>
<rect x="225" y="225" width="6" height="2" fill="black"/>
<rect x="229" y="226" width="7" height="2" transform="rotate(90 229 226)" fill="black"/>
</svg>
